<mxfile host="app.diagrams.net" modified="2021-09-26T17:35:36.103Z" agent="5.0 (X11; Linux x86_64) AppleWebKit/537.36 (KHTML, like Gecko) Chrome/93.0.4577.82 Safari/537.36" etag="1DUA4uagGz43X1tAgW_W" version="15.3.3" type="github">
  <diagram name="Page-1" id="e3a06f82-3646-2815-327d-82caf3d4e204">
    <mxGraphModel dx="1021" dy="698" grid="1" gridSize="10" guides="1" tooltips="1" connect="1" arrows="1" fold="1" page="1" pageScale="1.5" pageWidth="1169" pageHeight="826" background="none" math="0" shadow="0">
      <root>
        <mxCell id="0" style=";html=1;" />
        <mxCell id="1" style=";html=1;" parent="0" />
        <mxCell id="6a7d8f32e03d9370-60" value="NETWORK" style="whiteSpace=wrap;html=1;fillColor=#d5e8d4;fontSize=14;strokeColor=none;verticalAlign=top;" parent="1" vertex="1">
          <mxGeometry x="245" y="90" width="930" height="570" as="geometry" />
        </mxCell>
        <mxCell id="6a7d8f32e03d9370-58" value="Residential Private Networks" style="whiteSpace=wrap;html=1;fillColor=#dae8fc;fontSize=14;strokeColor=none;verticalAlign=top;" parent="1" vertex="1">
          <mxGeometry x="177" y="863" width="310" height="318" as="geometry" />
        </mxCell>
        <mxCell id="6a7d8f32e03d9370-36" style="edgeStyle=none;rounded=0;html=1;startSize=10;endSize=10;jettySize=auto;orthogonalLoop=1;fontSize=14;endArrow=none;endFill=0;strokeWidth=2;" parent="1" source="6a7d8f32e03d9370-1" target="6a7d8f32e03d9370-14" edge="1">
          <mxGeometry relative="1" as="geometry" />
        </mxCell>
        <mxCell id="6a7d8f32e03d9370-1" value="Client" style="verticalLabelPosition=bottom;aspect=fixed;html=1;verticalAlign=top;strokeColor=none;shape=mxgraph.citrix.laptop_2;fillColor=#66B2FF;gradientColor=#0066CC;fontSize=14;" parent="1" vertex="1">
          <mxGeometry x="609.9999999999999" y="1126" width="116" height="86.5" as="geometry" />
        </mxCell>
        <mxCell id="6a7d8f32e03d9370-4" value="Client" style="verticalLabelPosition=bottom;aspect=fixed;html=1;verticalAlign=top;strokeColor=none;shape=mxgraph.citrix.desktop;fillColor=#66B2FF;gradientColor=#0066CC;fontSize=14;" parent="1" vertex="1">
          <mxGeometry x="287" y="430" width="61.76" height="68" as="geometry" />
        </mxCell>
        <mxCell id="6a7d8f32e03d9370-37" style="edgeStyle=none;rounded=0;html=1;startSize=10;endSize=10;jettySize=auto;orthogonalLoop=1;fontSize=14;endArrow=none;endFill=0;strokeWidth=2;" parent="1" source="6a7d8f32e03d9370-6" target="6a7d8f32e03d9370-14" edge="1">
          <mxGeometry relative="1" as="geometry" />
        </mxCell>
        <mxCell id="6a7d8f32e03d9370-6" value="Client" style="verticalLabelPosition=bottom;aspect=fixed;html=1;verticalAlign=top;strokeColor=none;shape=mxgraph.citrix.pda;fillColor=#66B2FF;gradientColor=#0066CC;fontSize=14;" parent="1" vertex="1">
          <mxGeometry x="393.50000000000006" y="1065" width="30" height="61" as="geometry" />
        </mxCell>
        <mxCell id="6a7d8f32e03d9370-8" value="" style="verticalLabelPosition=bottom;aspect=fixed;html=1;verticalAlign=top;strokeColor=none;shape=mxgraph.citrix.xenapp_server;fillColor=#66B2FF;gradientColor=#0066CC;fontSize=14;" parent="1" vertex="1">
          <mxGeometry x="309.9999999999999" y="946.5" width="76" height="89" as="geometry" />
        </mxCell>
        <mxCell id="6a7d8f32e03d9370-38" style="edgeStyle=none;rounded=0;html=1;startSize=10;endSize=10;jettySize=auto;orthogonalLoop=1;fontSize=14;endArrow=none;endFill=0;strokeWidth=2;" parent="1" source="6a7d8f32e03d9370-14" target="6a7d8f32e03d9370-8" edge="1">
          <mxGeometry relative="1" as="geometry" />
        </mxCell>
        <mxCell id="6a7d8f32e03d9370-14" value="" style="verticalLabelPosition=bottom;aspect=fixed;html=1;verticalAlign=top;strokeColor=none;shape=mxgraph.citrix.xenclient_synchronizer;fillColor=#CCCCCC;gradientColor=#000000;gradientDirection=south;fontSize=14;" parent="1" vertex="1">
          <mxGeometry x="636.9999999999999" y="976" width="76" height="91" as="geometry" />
        </mxCell>
        <mxCell id="6a7d8f32e03d9370-23" value="" style="verticalLabelPosition=bottom;aspect=fixed;html=1;verticalAlign=top;strokeColor=none;shape=mxgraph.citrix.home_office;fillColor=#66B2FF;gradientColor=#0066CC;fontSize=14;" parent="1" vertex="1">
          <mxGeometry x="207" y="955" width="80" height="55.5" as="geometry" />
        </mxCell>
        <mxCell id="Fg0h0yD4u9hGByssmBjA-4" value="File Server" style="verticalLabelPosition=bottom;sketch=0;aspect=fixed;html=1;verticalAlign=top;strokeColor=none;align=center;outlineConnect=0;shape=mxgraph.citrix.file_server;hachureGap=4;pointerEvents=0;" vertex="1" parent="1">
          <mxGeometry x="490" y="254.75" width="89.66" height="122.5" as="geometry" />
        </mxCell>
        <mxCell id="Fg0h0yD4u9hGByssmBjA-5" value="Client" style="verticalLabelPosition=bottom;aspect=fixed;html=1;verticalAlign=top;strokeColor=none;shape=mxgraph.citrix.desktop;fillColor=#66B2FF;gradientColor=#0066CC;fontSize=14;" vertex="1" parent="1">
          <mxGeometry x="287" y="282" width="61.76" height="68" as="geometry" />
        </mxCell>
        <mxCell id="Fg0h0yD4u9hGByssmBjA-6" value="Client" style="verticalLabelPosition=bottom;aspect=fixed;html=1;verticalAlign=top;strokeColor=none;shape=mxgraph.citrix.desktop;fillColor=#66B2FF;gradientColor=#0066CC;fontSize=14;" vertex="1" parent="1">
          <mxGeometry x="287" y="160" width="61.76" height="68" as="geometry" />
        </mxCell>
        <mxCell id="Fg0h0yD4u9hGByssmBjA-21" value="" style="endArrow=none;html=1;startSize=14;endSize=14;sourcePerimeterSpacing=8;targetPerimeterSpacing=8;" edge="1" parent="1" source="Fg0h0yD4u9hGByssmBjA-6" target="Fg0h0yD4u9hGByssmBjA-4">
          <mxGeometry width="50" height="50" relative="1" as="geometry">
            <mxPoint x="460" y="300" as="sourcePoint" />
            <mxPoint x="510" y="250" as="targetPoint" />
          </mxGeometry>
        </mxCell>
        <mxCell id="Fg0h0yD4u9hGByssmBjA-22" value="" style="endArrow=none;html=1;startSize=14;endSize=14;sourcePerimeterSpacing=8;targetPerimeterSpacing=8;" edge="1" parent="1" source="Fg0h0yD4u9hGByssmBjA-5" target="Fg0h0yD4u9hGByssmBjA-4">
          <mxGeometry width="50" height="50" relative="1" as="geometry">
            <mxPoint x="324.97728000000006" y="226.98400000000004" as="sourcePoint" />
            <mxPoint x="549.3400000000001" y="319.47210922422494" as="targetPoint" />
          </mxGeometry>
        </mxCell>
        <mxCell id="Fg0h0yD4u9hGByssmBjA-23" value="" style="endArrow=none;html=1;startSize=14;endSize=14;sourcePerimeterSpacing=8;targetPerimeterSpacing=8;" edge="1" parent="1" source="6a7d8f32e03d9370-4" target="Fg0h0yD4u9hGByssmBjA-4">
          <mxGeometry width="50" height="50" relative="1" as="geometry">
            <mxPoint x="339.98496" y="347.01199999999994" as="sourcePoint" />
            <mxPoint x="559.3400000000001" y="329.47210922422494" as="targetPoint" />
          </mxGeometry>
        </mxCell>
        <mxCell id="Fg0h0yD4u9hGByssmBjA-24" value="Monitored folder" style="image;html=1;image=img/lib/clip_art/general/Full_Folder_128x128.png;hachureGap=4;pointerEvents=0;strokeColor=default;labelBackgroundColor=none;" vertex="1" parent="1">
          <mxGeometry x="670" y="276" width="80" height="80" as="geometry" />
        </mxCell>
        <mxCell id="Fg0h0yD4u9hGByssmBjA-25" value="" style="endArrow=none;html=1;startSize=14;endSize=14;sourcePerimeterSpacing=8;targetPerimeterSpacing=8;" edge="1" parent="1" source="Fg0h0yD4u9hGByssmBjA-24" target="Fg0h0yD4u9hGByssmBjA-4">
          <mxGeometry width="50" height="50" relative="1" as="geometry">
            <mxPoint x="460" y="400" as="sourcePoint" />
            <mxPoint x="510" y="350" as="targetPoint" />
          </mxGeometry>
        </mxCell>
        <mxCell id="Fg0h0yD4u9hGByssmBjA-26" value="D-Monitor&lt;br&gt;" style="image;html=1;image=img/lib/clip_art/computers/Software_128x128.png;hachureGap=4;pointerEvents=0;labelBackgroundColor=none;strokeColor=default;" vertex="1" parent="1">
          <mxGeometry x="890" y="276" width="80" height="80" as="geometry" />
        </mxCell>
        <mxCell id="Fg0h0yD4u9hGByssmBjA-27" value="Checks Periodicaly&lt;br&gt;Customizable time" style="endArrow=none;html=1;startSize=14;endSize=14;sourcePerimeterSpacing=8;targetPerimeterSpacing=8;labelBackgroundColor=none;verticalAlign=top;" edge="1" parent="1" source="Fg0h0yD4u9hGByssmBjA-24" target="Fg0h0yD4u9hGByssmBjA-26">
          <mxGeometry width="50" height="50" relative="1" as="geometry">
            <mxPoint x="460" y="350" as="sourcePoint" />
            <mxPoint x="510" y="300" as="targetPoint" />
          </mxGeometry>
        </mxCell>
        <mxCell id="Fg0h0yD4u9hGByssmBjA-28" value="Log:&lt;br&gt;Fail to reach folder&lt;br&gt;Could not send e-mail" style="image;html=1;image=img/lib/clip_art/computers/Database_128x128.png;hachureGap=4;pointerEvents=0;labelBackgroundColor=none;strokeColor=default;" vertex="1" parent="1">
          <mxGeometry x="990" y="460" width="80" height="80" as="geometry" />
        </mxCell>
        <mxCell id="Fg0h0yD4u9hGByssmBjA-29" value="Sends Mail&lt;br&gt;if checking found files in folder" style="verticalLabelPosition=bottom;sketch=0;aspect=fixed;html=1;verticalAlign=top;strokeColor=none;align=center;outlineConnect=0;shape=mxgraph.citrix.worxmail;fillColor=#112356;gradientColor=#63AFC6;gradientDirection=south;hachureGap=4;pointerEvents=0;labelBackgroundColor=none;" vertex="1" parent="1">
          <mxGeometry x="740" y="480" width="73" height="73" as="geometry" />
        </mxCell>
        <mxCell id="Fg0h0yD4u9hGByssmBjA-32" value="" style="endArrow=none;html=1;startSize=14;endSize=14;sourcePerimeterSpacing=8;targetPerimeterSpacing=8;" edge="1" parent="1" source="Fg0h0yD4u9hGByssmBjA-29" target="Fg0h0yD4u9hGByssmBjA-26">
          <mxGeometry width="50" height="50" relative="1" as="geometry">
            <mxPoint x="660" y="390" as="sourcePoint" />
            <mxPoint x="710" y="340" as="targetPoint" />
          </mxGeometry>
        </mxCell>
        <mxCell id="Fg0h0yD4u9hGByssmBjA-33" value="" style="endArrow=none;html=1;startSize=14;endSize=14;sourcePerimeterSpacing=8;targetPerimeterSpacing=8;" edge="1" parent="1" source="Fg0h0yD4u9hGByssmBjA-28" target="Fg0h0yD4u9hGByssmBjA-26">
          <mxGeometry width="50" height="50" relative="1" as="geometry">
            <mxPoint x="868.0703225806456" y="379.25" as="sourcePoint" />
            <mxPoint x="908.047741935484" y="278" as="targetPoint" />
          </mxGeometry>
        </mxCell>
      </root>
    </mxGraphModel>
  </diagram>
</mxfile>
